<?xml version="1.0" encoding="utf-8"?>
<!-- Generator: Adobe Illustrator 25.4.1, SVG Export Plug-In . SVG Version: 6.00 Build 0)  -->
<svg version="1.1" id="US" xmlns="http://www.w3.org/2000/svg" xmlns:xlink="http://www.w3.org/1999/xlink" x="0px" y="0px"
	 viewBox="0 0 110.1 34" style="enable-background:new 0 0 110.1 34;" xml:space="preserve">
<style type="text/css">
	.st0{clip-path:url(#SVGID_00000078761036884577192870000008603792796846458768_);fill:#D3D1C8;}
	
		.st1{clip-path:url(#SVGID_00000142147585993502709250000003421821003042127273_);fill:url(#SVGID_00000060012902784700636850000014795865765377702552_);}
	.st2{clip-path:url(#SVGID_00000034812673434328150500000013520521972035271300_);}
	.st3{clip-path:url(#SVGID_00000155136078414955576750000015442481995672199073_);fill:#319DCC;}
	.st4{clip-path:url(#SVGID_00000171692661959555808400000005590471179327983502_);}
	.st5{fill:#FFFFFF;}
	.st6{clip-path:url(#SVGID_00000092414807746244510660000002348255349106330302_);fill:#FDB921;}
	.st7{clip-path:url(#SVGID_00000130616593241480549510000014752568024308860814_);}
	.st8{clip-path:url(#SVGID_00000098941160097418238590000013380607609355609019_);fill:#71BF49;}
	.st9{clip-path:url(#SVGID_00000080168489295132027110000001819173602882075059_);}
	.st10{clip-path:url(#SVGID_00000011722843664764401420000004754207371469086630_);fill:#F37163;}
	.st11{clip-path:url(#SVGID_00000132767768872206152600000013526489829902139556_);}
	.st12{clip-path:url(#SVGID_00000069364073042415349430000018370167532817848745_);fill:#D3D1C8;}
</style>
<g>
	<g>
		<g>
			<defs>
				<path id="SVGID_1_" d="M201.8,125c0,4.1,0,8.2,0,12.3c0,3.4-0.1,6.9-0.2,10.3c-0.2,7.5-0.7,15.1-2,22.5
					c-1.4,7.5-3.6,14.5-7.1,21.4c-3.5,6.7-8,12.9-13.4,18.2c-5.4,5.3-11.6,9.8-18.4,13.2c-6.9,3.5-14,5.7-21.6,7
					c-7.5,1.3-15.2,1.8-22.8,2c-3.5,0.1-7,0.1-10.5,0.1c-4.1,0-8.3,0-12.4,0h-3.4H-177h-47.6c-4.1,0-8.3,0-12.4,0
					c-3.5,0-7-0.1-10.5-0.1c-7.6-0.2-15.3-0.6-22.8-2c-7.6-1.4-14.7-3.6-21.6-7c-6.8-3.4-13-7.9-18.4-13.2
					c-5.4-5.3-9.9-11.5-13.4-18.2c-3.5-6.8-5.8-13.8-7.1-21.4c-1.3-7.4-1.8-15-2-22.5c-0.1-3.4-0.1-6.9-0.2-10.3c0-4.1,0-8.2,0-12.3
					V78V-65.7v-30c0-2.6,0-5.2,0-7.8c0-2.2,0-4.4,0.1-6.6c0.1-4.8,0.4-9.6,1.3-14.3c0.9-4.8,2.3-9.3,4.6-13.6
					c2.2-4.3,5.1-8.2,8.5-11.6c3.4-3.4,7.4-6.3,11.8-8.4c4.4-2.2,8.9-3.7,13.8-4.5c4.8-0.8,9.7-1.1,14.5-1.3
					c2.2-0.1,4.5-0.1,6.7-0.1c2.6,0,5.3,0,7.9,0h30.4h363.9l-28.2,0l30.4,0c2.6,0,5.3,0,7.9,0c2.2,0,4.5,0,6.7,0.1
					c4.8,0.1,9.7,0.4,14.5,1.3c4.9,0.9,9.4,2.3,13.8,4.5c4.3,2.2,8.3,5,11.8,8.4c3.4,3.4,6.3,7.3,8.5,11.6c2.3,4.4,3.7,8.8,4.6,13.6
					c0.9,4.7,1.1,9.5,1.3,14.3c0.1,2.2,0.1,4.4,0.1,6.6c0,2.6,0,5.2,0,7.8v30V78L201.8,125z"/>
			</defs>
			<clipPath id="SVGID_00000069369656154612891060000004125027606277457315_">
				<use xlink:href="#SVGID_1_"  style="overflow:visible;"/>
			</clipPath>
			<path id="wallet_back_2_" style="clip-path:url(#SVGID_00000069369656154612891060000004125027606277457315_);fill:#D3D1C8;" d="
				M201.8-112.5V232H-333v-344.9l0,0c0-29.2,22.6-50.5,50.5-50.5l0,0h433.8l0,0l0,0c27.9,0,50.5,21,50.5,50.5
				C201.8-112.8,201.8-112.7,201.8-112.5z"/>
		</g>
		<g>
			<defs>
				<path id="SVGID_00000150063886956737548610000006390366488805938107_" d="M201.8,125c0,4.1,0,8.2,0,12.3c0,3.4-0.1,6.9-0.2,10.3
					c-0.2,7.5-0.7,15.1-2,22.5c-1.4,7.5-3.6,14.5-7.1,21.4c-3.5,6.7-8,12.9-13.4,18.2c-5.4,5.3-11.6,9.8-18.4,13.2
					c-6.9,3.5-14,5.7-21.6,7c-7.5,1.3-15.2,1.8-22.8,2c-3.5,0.1-7,0.1-10.5,0.1c-4.1,0-8.3,0-12.4,0h-3.4H-177h-47.6
					c-4.1,0-8.3,0-12.4,0c-3.5,0-7-0.1-10.5-0.1c-7.6-0.2-15.3-0.6-22.8-2c-7.6-1.4-14.7-3.6-21.6-7c-6.8-3.4-13-7.9-18.4-13.2
					c-5.4-5.3-9.9-11.5-13.4-18.2c-3.5-6.8-5.8-13.8-7.1-21.4c-1.3-7.4-1.8-15-2-22.5c-0.1-3.4-0.1-6.9-0.2-10.3c0-4.1,0-8.2,0-12.3
					V78V-65.7v-30c0-2.6,0-5.2,0-7.8c0-2.2,0-4.4,0.1-6.6c0.1-4.8,0.4-9.6,1.3-14.3c0.9-4.8,2.3-9.3,4.6-13.6
					c2.2-4.3,5.1-8.2,8.5-11.6c3.4-3.4,7.4-6.3,11.8-8.4c4.4-2.2,8.9-3.7,13.8-4.5c4.8-0.8,9.7-1.1,14.5-1.3
					c2.2-0.1,4.5-0.1,6.7-0.1c2.6,0,5.3,0,7.9,0h30.4h363.9l-28.2,0l30.4,0c2.6,0,5.3,0,7.9,0c2.2,0,4.5,0,6.7,0.1
					c4.8,0.1,9.7,0.4,14.5,1.3c4.9,0.9,9.4,2.3,13.8,4.5c4.3,2.2,8.3,5,11.8,8.4c3.4,3.4,6.3,7.3,8.5,11.6c2.3,4.4,3.7,8.8,4.6,13.6
					c0.9,4.7,1.1,9.5,1.3,14.3c0.1,2.2,0.1,4.4,0.1,6.6c0,2.6,0,5.2,0,7.8v30V78L201.8,125z"/>
			</defs>
			<clipPath id="SVGID_00000017492659920346708810000006995786196403116182_">
				<use xlink:href="#SVGID_00000150063886956737548610000006390366488805938107_"  style="overflow:visible;"/>
			</clipPath>
			
				<linearGradient id="SVGID_00000160178000045608269080000016938967217866020001_" gradientUnits="userSpaceOnUse" x1="-65.5697" y1="14.2945" x2="-65.5697" y2="-25.5631" gradientTransform="matrix(1 0 0 -1 0 36)">
				<stop  offset="3.800000e-03" style="stop-color:#D3D1C8"/>
				<stop  offset="0.2318" style="stop-color:#C4C3BB"/>
				<stop  offset="0.6887" style="stop-color:#A5A59F"/>
				<stop  offset="1" style="stop-color:#8C8D88"/>
			</linearGradient>
			
				<rect x="-332.9" y="21.7" style="clip-path:url(#SVGID_00000017492659920346708810000006995786196403116182_);fill:url(#SVGID_00000160178000045608269080000016938967217866020001_);" width="534.7" height="39.9"/>
		</g>
		<g>
			<defs>
				<path id="SVGID_00000078028380597169747190000014605933156363924618_" d="M201.8,125c0,4.1,0,8.2,0,12.3c0,3.4-0.1,6.9-0.2,10.3
					c-0.2,7.5-0.7,15.1-2,22.5c-1.4,7.5-3.6,14.5-7.1,21.4c-3.5,6.7-8,12.9-13.4,18.2c-5.4,5.3-11.6,9.8-18.4,13.2
					c-6.9,3.5-14,5.7-21.6,7c-7.5,1.3-15.2,1.8-22.8,2c-3.5,0.1-7,0.1-10.5,0.1c-4.1,0-8.3,0-12.4,0h-3.4H-177h-47.6
					c-4.1,0-8.3,0-12.4,0c-3.5,0-7-0.1-10.5-0.1c-7.6-0.2-15.3-0.6-22.8-2c-7.6-1.4-14.7-3.6-21.6-7c-6.8-3.4-13-7.9-18.4-13.2
					c-5.4-5.3-9.9-11.5-13.4-18.2c-3.5-6.8-5.8-13.8-7.1-21.4c-1.3-7.4-1.8-15-2-22.5c-0.1-3.4-0.1-6.9-0.2-10.3c0-4.1,0-8.2,0-12.3
					V78V-65.7v-30c0-2.6,0-5.2,0-7.8c0-2.2,0-4.4,0.1-6.6c0.1-4.8,0.4-9.6,1.3-14.3c0.9-4.8,2.3-9.3,4.6-13.6
					c2.2-4.3,5.1-8.2,8.5-11.6c3.4-3.4,7.4-6.3,11.8-8.4c4.4-2.2,8.9-3.7,13.8-4.5c4.8-0.8,9.7-1.1,14.5-1.3
					c2.2-0.1,4.5-0.1,6.7-0.1c2.6,0,5.3,0,7.9,0h30.4h363.9l-28.2,0l30.4,0c2.6,0,5.3,0,7.9,0c2.2,0,4.5,0,6.7,0.1
					c4.8,0.1,9.7,0.4,14.5,1.3c4.9,0.9,9.4,2.3,13.8,4.5c4.3,2.2,8.3,5,11.8,8.4c3.4,3.4,6.3,7.3,8.5,11.6c2.3,4.4,3.7,8.8,4.6,13.6
					c0.9,4.7,1.1,9.5,1.3,14.3c0.1,2.2,0.1,4.4,0.1,6.6c0,2.6,0,5.2,0,7.8v30V78L201.8,125z"/>
			</defs>
			<clipPath id="SVGID_00000156551217299921825370000013880470748583456696_">
				<use xlink:href="#SVGID_00000078028380597169747190000014605933156363924618_"  style="overflow:visible;"/>
			</clipPath>
			<g style="clip-path:url(#SVGID_00000156551217299921825370000013880470748583456696_);">
				<g>
					<defs>
						<path id="SVGID_00000100371539643376415320000010197758217563116164_" d="M-310.7,111.2V-78.1v-19.2c0-1.7,0-3.3,0-5
							c0-1.4,0-2.8,0.1-4.2c0.1-3.1,0.3-6.2,0.8-9.2c0.6-3.1,1.5-6,2.9-8.7c1.4-2.8,3.2-5.3,5.4-7.5c2.2-2.2,4.7-4,7.5-5.4
							c2.8-1.4,5.7-2.3,8.8-2.9c3-0.6,6.1-0.7,9.2-0.8c1.4,0,2.8-0.1,4.2-0.1c1.7,0,3.3,0,5,0h19.2h381.8h-17.8h19.2
							c1.7,0,3.3,0,5,0c1.4,0,2.8,0,4.2,0.1c3.1,0.1,6.2,0.3,9.2,0.8c3.1,0.6,6,1.5,8.8,2.9c2.8,1.4,5.3,3.2,7.5,5.4
							c2.2,2.2,4,4.7,5.4,7.5c1.4,2.8,2.3,5.7,2.9,8.7c0.6,3,0.7,6.1,0.8,9.2c0,1.4,0.1,2.8,0.1,4.2c0,1.7,0,3.3,0,5V-78v189.2
							L-310.7,111.2L-310.7,111.2z"/>
					</defs>
					<clipPath id="SVGID_00000021093972276094986360000008640402059227947915_">
						<use xlink:href="#SVGID_00000100371539643376415320000010197758217563116164_"  style="overflow:visible;"/>
					</clipPath>
					<path id="blue_4_" style="clip-path:url(#SVGID_00000021093972276094986360000008640402059227947915_);fill:#319DCC;" d="
						M-310.7,111.2V-78.1v-19.2c0-1.7,0-3.3,0-5c0-1.4,0-2.8,0.1-4.2c0.1-3.1,0.3-6.2,0.8-9.2c0.6-3.1,1.5-6,2.9-8.7
						c1.4-2.8,3.2-5.3,5.4-7.5c2.2-2.2,4.7-4,7.5-5.4c2.8-1.4,5.7-2.3,8.8-2.9c3-0.6,6.1-0.7,9.2-0.8c1.4,0,2.8-0.1,4.2-0.1
						c1.7,0,3.3,0,5,0h19.2h381.8h-17.8h19.2c1.7,0,3.3,0,5,0c1.4,0,2.8,0,4.2,0.1c3.1,0.1,6.2,0.3,9.2,0.8c3.1,0.6,6,1.5,8.8,2.9
						c2.8,1.4,5.3,3.2,7.5,5.4c2.2,2.2,4,4.7,5.4,7.5c1.4,2.8,2.3,5.7,2.9,8.7c0.6,3,0.7,6.1,0.8,9.2c0,1.4,0.1,2.8,0.1,4.2
						c0,1.7,0,3.3,0,5V-78v189.2L-310.7,111.2L-310.7,111.2z"/>
				</g>
				<g>
					<defs>
						<path id="SVGID_00000021101881457651663740000001758306265153399710_" d="M-310.7,111.2V-78.1v-19.2c0-1.7,0-3.3,0-5
							c0-1.4,0-2.8,0.1-4.2c0.1-3.1,0.3-6.2,0.8-9.2c0.6-3.1,1.5-6,2.9-8.7c1.4-2.8,3.2-5.3,5.4-7.5c2.2-2.2,4.7-4,7.5-5.4
							c2.8-1.4,5.7-2.3,8.8-2.9c3-0.6,6.1-0.7,9.2-0.8c1.4,0,2.8-0.1,4.2-0.1c1.7,0,3.3,0,5,0h19.2h381.8h-17.8h19.2
							c1.7,0,3.3,0,5,0c1.4,0,2.8,0,4.2,0.1c3.1,0.1,6.2,0.3,9.2,0.8c3.1,0.6,6,1.5,8.8,2.9c2.8,1.4,5.3,3.2,7.5,5.4
							c2.2,2.2,4,4.7,5.4,7.5c1.4,2.8,2.3,5.7,2.9,8.7c0.6,3,0.7,6.1,0.8,9.2c0,1.4,0.1,2.8,0.1,4.2c0,1.7,0,3.3,0,5V-78v189.2
							L-310.7,111.2L-310.7,111.2z"/>
					</defs>
					<clipPath id="SVGID_00000060753373550760287670000011729232741280392621_">
						<use xlink:href="#SVGID_00000021101881457651663740000001758306265153399710_"  style="overflow:visible;"/>
					</clipPath>
					<g id="yellow_shdw" style="clip-path:url(#SVGID_00000060753373550760287670000011729232741280392621_);">
						
							<image style="overflow:visible;opacity:0.17;enable-background:new    ;" width="181" height="106" xlink:href="1A785B80.png"  transform="matrix(3.0686 0 0 3.0686 -342.8947 -141.8564)">
						</image>
						<g>
							<g>
								<path class="st5" d="M-310.7,155.7V-33.5v-19.2c0-1.7,0-3.3,0-5c0-1.4,0-2.8,0.1-4.2c0.1-3.1,0.3-6.2,0.8-9.2
									c0.6-3.1,1.5-6,2.9-8.7c1.4-2.8,3.2-5.3,5.4-7.5c2.2-2.2,4.7-4,7.5-5.4c2.8-1.4,5.7-2.3,8.8-2.9c3-0.6,6.1-0.7,9.2-0.8
									c1.4,0,2.8-0.1,4.2-0.1c1.7,0,3.3,0,5,0h19.2h381.8h-17.8h19.2c1.7,0,3.3,0,5,0c1.4,0,2.8,0,4.2,0.1
									c3.1,0.1,6.2,0.3,9.2,0.8c3.1,0.6,6,1.5,8.8,2.9c2.8,1.4,5.3,3.2,7.5,5.4c2.2,2.2,4,4.7,5.4,7.5c1.4,2.8,2.3,5.7,2.9,8.7
									c0.6,3,0.7,6.1,0.8,9.2c0,1.4,0.1,2.8,0.1,4.2c0,1.7,0,3.3,0,5v19.2v189.2H-310.7z"/>
							</g>
						</g>
					</g>
				</g>
				<g>
					<defs>
						<path id="SVGID_00000152248608338753469320000000332642033981792904_" d="M-310.7,111.2V-78.1v-19.2c0-1.7,0-3.3,0-5
							c0-1.4,0-2.8,0.1-4.2c0.1-3.1,0.3-6.2,0.8-9.2c0.6-3.1,1.5-6,2.9-8.7c1.4-2.8,3.2-5.3,5.4-7.5c2.2-2.2,4.7-4,7.5-5.4
							c2.8-1.4,5.7-2.3,8.8-2.9c3-0.6,6.1-0.7,9.2-0.8c1.4,0,2.8-0.1,4.2-0.1c1.7,0,3.3,0,5,0h19.2h381.8h-17.8h19.2
							c1.7,0,3.3,0,5,0c1.4,0,2.8,0,4.2,0.1c3.1,0.1,6.2,0.3,9.2,0.8c3.1,0.6,6,1.5,8.8,2.9c2.8,1.4,5.3,3.2,7.5,5.4
							c2.2,2.2,4,4.7,5.4,7.5c1.4,2.8,2.3,5.7,2.9,8.7c0.6,3,0.7,6.1,0.8,9.2c0,1.4,0.1,2.8,0.1,4.2c0,1.7,0,3.3,0,5V-78v189.2
							L-310.7,111.2L-310.7,111.2z"/>
					</defs>
					<clipPath id="SVGID_00000093872434683458175280000001398889876272060606_">
						<use xlink:href="#SVGID_00000152248608338753469320000000332642033981792904_"  style="overflow:visible;"/>
					</clipPath>
					<path id="yellow_5_" style="clip-path:url(#SVGID_00000093872434683458175280000001398889876272060606_);fill:#FDB921;" d="
						M-310.7,155.7V-33.5v-19.2c0-1.7,0-3.3,0-5c0-1.4,0-2.8,0.1-4.2c0.1-3.1,0.3-6.2,0.8-9.2c0.6-3.1,1.5-6,2.9-8.7
						c1.4-2.8,3.2-5.3,5.4-7.5c2.2-2.2,4.7-4,7.5-5.4c2.8-1.4,5.7-2.3,8.8-2.9c3-0.6,6.1-0.7,9.2-0.8c1.4,0,2.8-0.1,4.2-0.1
						c1.7,0,3.3,0,5,0h19.2h381.8h-17.8h19.2c1.7,0,3.3,0,5,0c1.4,0,2.8,0,4.2,0.1c3.1,0.1,6.2,0.3,9.2,0.8c3.1,0.6,6,1.5,8.8,2.9
						c2.8,1.4,5.3,3.2,7.5,5.4c2.2,2.2,4,4.7,5.4,7.5c1.4,2.8,2.3,5.7,2.9,8.7c0.6,3,0.7,6.1,0.8,9.2c0,1.4,0.1,2.8,0.1,4.2
						c0,1.7,0,3.3,0,5v19.2v189.2H-310.7z"/>
				</g>
				<g>
					<defs>
						<path id="SVGID_00000080914944287449323790000012274629260282174619_" d="M-310.7,111.2V-78.1v-19.2c0-1.7,0-3.3,0-5
							c0-1.4,0-2.8,0.1-4.2c0.1-3.1,0.3-6.2,0.8-9.2c0.6-3.1,1.5-6,2.9-8.7c1.4-2.8,3.2-5.3,5.4-7.5c2.2-2.2,4.7-4,7.5-5.4
							c2.8-1.4,5.7-2.3,8.8-2.9c3-0.6,6.1-0.7,9.2-0.8c1.4,0,2.8-0.1,4.2-0.1c1.7,0,3.3,0,5,0h19.2h381.8h-17.8h19.2
							c1.7,0,3.3,0,5,0c1.4,0,2.8,0,4.2,0.1c3.1,0.1,6.2,0.3,9.2,0.8c3.1,0.6,6,1.5,8.8,2.9c2.8,1.4,5.3,3.2,7.5,5.4
							c2.2,2.2,4,4.7,5.4,7.5c1.4,2.8,2.3,5.7,2.9,8.7c0.6,3,0.7,6.1,0.8,9.2c0,1.4,0.1,2.8,0.1,4.2c0,1.7,0,3.3,0,5V-78v189.2
							L-310.7,111.2L-310.7,111.2z"/>
					</defs>
					<clipPath id="SVGID_00000047756048444800530520000008179297488550499245_">
						<use xlink:href="#SVGID_00000080914944287449323790000012274629260282174619_"  style="overflow:visible;"/>
					</clipPath>
					<g id="green_shdw" style="clip-path:url(#SVGID_00000047756048444800530520000008179297488550499245_);">
						
							<image style="overflow:visible;opacity:0.16;enable-background:new    ;" width="181" height="106" xlink:href="1A785B81.png"  transform="matrix(3.0686 0 0 3.0686 -342.3957 -95.7337)">
						</image>
						<g>
							<g>
								<path class="st5" d="M-310.7,200.2V11V-8.2c0-1.7,0-3.3,0-5c0-1.4,0-2.8,0.1-4.2c0.1-3.1,0.3-6.2,0.8-9.2
									c0.6-3.1,1.5-6,2.9-8.7c1.4-2.8,3.2-5.3,5.4-7.5c2.2-2.2,4.7-4,7.5-5.4c2.8-1.4,5.7-2.3,8.8-2.9c3-0.6,6.1-0.7,9.2-0.8
									c1.4,0,2.8-0.1,4.2-0.1c1.7,0,3.3,0,5,0h19.2h381.8h-17.8h19.2c1.7,0,3.3,0,5,0c1.4,0,2.8,0,4.2,0.1
									c3.1,0.1,6.2,0.3,9.2,0.8c3.1,0.6,6,1.5,8.8,2.9c2.8,1.4,5.3,3.2,7.5,5.4c2.2,2.2,4,4.7,5.4,7.5c1.4,2.8,2.3,5.7,2.9,8.7
									c0.6,3,0.7,6.1,0.8,9.2c0,1.4,0.1,2.8,0.1,4.2c0,1.7,0,3.3,0,5V11v189.2H-310.7z"/>
							</g>
						</g>
					</g>
				</g>
				<g>
					<defs>
						<path id="SVGID_00000121976499261267409880000016391403337803852678_" d="M-310.7,111.2V-78.1v-19.2c0-1.7,0-3.3,0-5
							c0-1.4,0-2.8,0.1-4.2c0.1-3.1,0.3-6.2,0.8-9.2c0.6-3.1,1.5-6,2.9-8.7c1.4-2.8,3.2-5.3,5.4-7.5c2.2-2.2,4.7-4,7.5-5.4
							c2.8-1.4,5.7-2.3,8.8-2.9c3-0.6,6.1-0.7,9.2-0.8c1.4,0,2.8-0.1,4.2-0.1c1.7,0,3.3,0,5,0h19.2h381.8h-17.8h19.2
							c1.7,0,3.3,0,5,0c1.4,0,2.8,0,4.2,0.1c3.1,0.1,6.2,0.3,9.2,0.8c3.1,0.6,6,1.5,8.8,2.9c2.8,1.4,5.3,3.2,7.5,5.4
							c2.2,2.2,4,4.7,5.4,7.5c1.4,2.8,2.3,5.7,2.9,8.7c0.6,3,0.7,6.1,0.8,9.2c0,1.4,0.1,2.8,0.1,4.2c0,1.7,0,3.3,0,5V-78v189.2
							L-310.7,111.2L-310.7,111.2z"/>
					</defs>
					<clipPath id="SVGID_00000101091858271248689810000008578006156036446883_">
						<use xlink:href="#SVGID_00000121976499261267409880000016391403337803852678_"  style="overflow:visible;"/>
					</clipPath>
					<path id="green_5_" style="clip-path:url(#SVGID_00000101091858271248689810000008578006156036446883_);fill:#71BF49;" d="
						M-310.7,200.2V11V-8.2c0-1.7,0-3.3,0-5c0-1.4,0-2.8,0.1-4.2c0.1-3.1,0.3-6.2,0.8-9.2c0.6-3.1,1.5-6,2.9-8.7
						c1.4-2.8,3.2-5.3,5.4-7.5c2.2-2.2,4.7-4,7.5-5.4c2.8-1.4,5.7-2.3,8.8-2.9c3-0.6,6.1-0.7,9.2-0.8c1.4,0,2.8-0.1,4.2-0.1
						c1.7,0,3.3,0,5,0h19.2h381.8h-17.8h19.2c1.7,0,3.3,0,5,0c1.4,0,2.8,0,4.2,0.1c3.1,0.1,6.2,0.3,9.2,0.8c3.1,0.6,6,1.5,8.8,2.9
						c2.8,1.4,5.3,3.2,7.5,5.4c2.2,2.2,4,4.7,5.4,7.5c1.4,2.8,2.3,5.7,2.9,8.7c0.6,3,0.7,6.1,0.8,9.2c0,1.4,0.1,2.8,0.1,4.2
						c0,1.7,0,3.3,0,5V11v189.2H-310.7z"/>
				</g>
				<g>
					<defs>
						<path id="SVGID_00000059310949276377803630000014957276611661907591_" d="M-310.7,111.2V-78.1v-19.2c0-1.7,0-3.3,0-5
							c0-1.4,0-2.8,0.1-4.2c0.1-3.1,0.3-6.2,0.8-9.2c0.6-3.1,1.5-6,2.9-8.7c1.4-2.8,3.2-5.3,5.4-7.5c2.2-2.2,4.7-4,7.5-5.4
							c2.8-1.4,5.7-2.3,8.8-2.9c3-0.6,6.1-0.7,9.2-0.8c1.4,0,2.8-0.1,4.2-0.1c1.7,0,3.3,0,5,0h19.2h381.8h-17.8h19.2
							c1.7,0,3.3,0,5,0c1.4,0,2.8,0,4.2,0.1c3.1,0.1,6.2,0.3,9.2,0.8c3.1,0.6,6,1.5,8.8,2.9c2.8,1.4,5.3,3.2,7.5,5.4
							c2.2,2.2,4,4.7,5.4,7.5c1.4,2.8,2.3,5.7,2.9,8.7c0.6,3,0.7,6.1,0.8,9.2c0,1.4,0.1,2.8,0.1,4.2c0,1.7,0,3.3,0,5V-78v189.2
							L-310.7,111.2L-310.7,111.2z"/>
					</defs>
					<clipPath id="SVGID_00000072965587509358055070000007997612848817973165_">
						<use xlink:href="#SVGID_00000059310949276377803630000014957276611661907591_"  style="overflow:visible;"/>
					</clipPath>
					<g id="red_shdw" style="clip-path:url(#SVGID_00000072965587509358055070000007997612848817973165_);">
						
							<image style="overflow:visible;opacity:0.17;enable-background:new    ;" width="181" height="88" xlink:href="1A785B87.png"  transform="matrix(3.104 0 0 3.104 -345.6037 -48.1582)">
						</image>
						<g>
							<g>
								<path class="st5" d="M-310.7,200.2V55.5V36.3c0-1.7,0-3.3,0-5c0-1.4,0-2.8,0.1-4.2c0.1-3.1,0.3-6.2,0.8-9.2
									c0.6-3.1,1.5-6,2.9-8.7c1.4-2.8,3.2-5.3,5.4-7.5c2.2-2.2,4.7-4,7.5-5.4c2.8-1.4,5.7-2.3,8.8-2.9c3-0.6,6.1-0.7,9.2-0.8
									c1.4,0,2.8-0.1,4.2-0.1c1.7,0,3.3,0,5,0h19.2h381.8h-17.8h19.2c1.7,0,3.3,0,5,0c1.4,0,2.8,0,4.2,0.1
									c3.1,0.1,6.2,0.3,9.2,0.8c3.1,0.6,6,1.5,8.8,2.9c2.8,1.4,5.3,3.2,7.5,5.4c2.2,2.2,4,4.7,5.4,7.5c1.4,2.8,2.3,5.7,2.9,8.7
									c0.6,3,0.7,6.1,0.8,9.2c0,1.4,0.1,2.8,0.1,4.2c0,1.7,0,3.3,0,5v19.2v144.7H-310.7z"/>
							</g>
						</g>
					</g>
				</g>
				<g>
					<defs>
						<path id="SVGID_00000165941657460301174670000013195535611798358175_" d="M-310.7,111.2V-78.1v-19.2c0-1.7,0-3.3,0-5
							c0-1.4,0-2.8,0.1-4.2c0.1-3.1,0.3-6.2,0.8-9.2c0.6-3.1,1.5-6,2.9-8.7c1.4-2.8,3.2-5.3,5.4-7.5c2.2-2.2,4.7-4,7.5-5.4
							c2.8-1.4,5.7-2.3,8.8-2.9c3-0.6,6.1-0.7,9.2-0.8c1.4,0,2.8-0.1,4.2-0.1c1.7,0,3.3,0,5,0h19.2h381.8h-17.8h19.2
							c1.7,0,3.3,0,5,0c1.4,0,2.8,0,4.2,0.1c3.1,0.1,6.2,0.3,9.2,0.8c3.1,0.6,6,1.5,8.8,2.9c2.8,1.4,5.3,3.2,7.5,5.4
							c2.2,2.2,4,4.7,5.4,7.5c1.4,2.8,2.3,5.7,2.9,8.7c0.6,3,0.7,6.1,0.8,9.2c0,1.4,0.1,2.8,0.1,4.2c0,1.7,0,3.3,0,5V-78v189.2
							L-310.7,111.2L-310.7,111.2z"/>
					</defs>
					<clipPath id="SVGID_00000147214166661851321400000008353395657683390655_">
						<use xlink:href="#SVGID_00000165941657460301174670000013195535611798358175_"  style="overflow:visible;"/>
					</clipPath>
					<path id="red_5_" style="clip-path:url(#SVGID_00000147214166661851321400000008353395657683390655_);fill:#F37163;" d="
						M-310.7,200.2V55.5V36.3c0-1.7,0-3.3,0-5c0-1.4,0-2.8,0.1-4.2c0.1-3.1,0.3-6.2,0.8-9.2c0.6-3.1,1.5-6,2.9-8.7
						c1.4-2.8,3.2-5.3,5.4-7.5c2.2-2.2,4.7-4,7.5-5.4c2.8-1.4,5.7-2.3,8.8-2.9c3-0.6,6.1-0.7,9.2-0.8c1.4,0,2.8-0.1,4.2-0.1
						c1.7,0,3.3,0,5,0h19.2h381.8h-17.8h19.2c1.7,0,3.3,0,5,0c1.4,0,2.8,0,4.2,0.1c3.1,0.1,6.2,0.3,9.2,0.8c3.1,0.6,6,1.5,8.8,2.9
						c2.8,1.4,5.3,3.2,7.5,5.4c2.2,2.2,4,4.7,5.4,7.5c1.4,2.8,2.3,5.7,2.9,8.7c0.6,3,0.7,6.1,0.8,9.2c0,1.4,0.1,2.8,0.1,4.2
						c0,1.7,0,3.3,0,5v19.2v144.7H-310.7z"/>
				</g>
			</g>
		</g>
		<g>
			<defs>
				<path id="SVGID_00000039843664712949228220000001543264280136350863_" d="M201.8,125c0,4.1,0,8.2,0,12.3c0,3.4-0.1,6.9-0.2,10.3
					c-0.2,7.5-0.7,15.1-2,22.5c-1.4,7.5-3.6,14.5-7.1,21.4c-3.5,6.7-8,12.9-13.4,18.2c-5.4,5.3-11.6,9.8-18.4,13.2
					c-6.9,3.5-14,5.7-21.6,7c-7.5,1.3-15.2,1.8-22.8,2c-3.5,0.1-7,0.1-10.5,0.1c-4.1,0-8.3,0-12.4,0h-3.4H-177h-47.6
					c-4.1,0-8.3,0-12.4,0c-3.5,0-7-0.1-10.5-0.1c-7.6-0.2-15.3-0.6-22.8-2c-7.6-1.4-14.7-3.6-21.6-7c-6.8-3.4-13-7.9-18.4-13.2
					c-5.4-5.3-9.9-11.5-13.4-18.2c-3.5-6.8-5.8-13.8-7.1-21.4c-1.3-7.4-1.8-15-2-22.5c-0.1-3.4-0.1-6.9-0.2-10.3c0-4.1,0-8.2,0-12.3
					V78V-65.7v-30c0-2.6,0-5.2,0-7.8c0-2.2,0-4.4,0.1-6.6c0.1-4.8,0.4-9.6,1.3-14.3c0.9-4.8,2.3-9.3,4.6-13.6
					c2.2-4.3,5.1-8.2,8.5-11.6c3.4-3.4,7.4-6.3,11.8-8.4c4.4-2.2,8.9-3.7,13.8-4.5c4.8-0.8,9.7-1.1,14.5-1.3
					c2.2-0.1,4.5-0.1,6.7-0.1c2.6,0,5.3,0,7.9,0h30.4h363.9l-28.2,0l30.4,0c2.6,0,5.3,0,7.9,0c2.2,0,4.5,0,6.7,0.1
					c4.8,0.1,9.7,0.4,14.5,1.3c4.9,0.9,9.4,2.3,13.8,4.5c4.3,2.2,8.3,5,11.8,8.4c3.4,3.4,6.3,7.3,8.5,11.6c2.3,4.4,3.7,8.8,4.6,13.6
					c0.9,4.7,1.1,9.5,1.3,14.3c0.1,2.2,0.1,4.4,0.1,6.6c0,2.6,0,5.2,0,7.8v30V78L201.8,125z"/>
			</defs>
			<clipPath id="SVGID_00000158019558013910243690000017631180530063849357_">
				<use xlink:href="#SVGID_00000039843664712949228220000001543264280136350863_"  style="overflow:visible;"/>
			</clipPath>
			<g id="wallet_pocket_shdw" style="clip-path:url(#SVGID_00000158019558013910243690000017631180530063849357_);">
				
					<image style="overflow:visible;opacity:0.12;enable-background:new    ;" width="188" height="88" xlink:href="1A785B82.png"  transform="matrix(2.9495 0 0 2.9495 -342.3945 1.5283)">
				</image>
				<g>
					<g>
						<path class="st5" d="M201.8,237.3H-333V36.9h129.9c3.2,0,6.4,0,9.6,0c2.7,0,5.4,0,8,0.1c5.9,0.2,11.7,0.5,17.5,1.5
							c5.9,1,11.3,2.8,16.7,5.5c-1.1-0.6,14.7,5.9,28.6,27.5c10,15.6,29.5,32.1,56.7,32.1s46.7-16.5,56.7-32.1
							C4,51.1,18.6,44.5,19.3,44.1c5.3-2.7,10.8-4.4,16.7-5.5c5.8-1,11.7-1.4,17.5-1.5c2.7-0.1,5.4-0.1,8-0.1c3.2,0,6.4,0,9.6,0
							h130.6L201.8,237.3L201.8,237.3z"/>
					</g>
				</g>
			</g>
		</g>
		<g>
			<defs>
				<path id="SVGID_00000174562349657389353990000015367593886623280822_" d="M201.8,125c0,4.1,0,8.2,0,12.3c0,3.4-0.1,6.9-0.2,10.3
					c-0.2,7.5-0.7,15.1-2,22.5c-1.4,7.5-3.6,14.5-7.1,21.4c-3.5,6.7-8,12.9-13.4,18.2c-5.4,5.3-11.6,9.8-18.4,13.2
					c-6.9,3.5-14,5.7-21.6,7c-7.5,1.3-15.2,1.8-22.8,2c-3.5,0.1-7,0.1-10.5,0.1c-4.1,0-8.3,0-12.4,0h-3.4H-177h-47.6
					c-4.1,0-8.3,0-12.4,0c-3.5,0-7-0.1-10.5-0.1c-7.6-0.2-15.3-0.6-22.8-2c-7.6-1.4-14.7-3.6-21.6-7c-6.8-3.4-13-7.9-18.4-13.2
					c-5.4-5.3-9.9-11.5-13.4-18.2c-3.5-6.8-5.8-13.8-7.1-21.4c-1.3-7.4-1.8-15-2-22.5c-0.1-3.4-0.1-6.9-0.2-10.3c0-4.1,0-8.2,0-12.3
					V78V-65.7v-30c0-2.6,0-5.2,0-7.8c0-2.2,0-4.4,0.1-6.6c0.1-4.8,0.4-9.6,1.3-14.3c0.9-4.8,2.3-9.3,4.6-13.6
					c2.2-4.3,5.1-8.2,8.5-11.6c3.4-3.4,7.4-6.3,11.8-8.4c4.4-2.2,8.9-3.7,13.8-4.5c4.8-0.8,9.7-1.1,14.5-1.3
					c2.2-0.1,4.5-0.1,6.7-0.1c2.6,0,5.3,0,7.9,0h30.4h363.9l-28.2,0l30.4,0c2.6,0,5.3,0,7.9,0c2.2,0,4.5,0,6.7,0.1
					c4.8,0.1,9.7,0.4,14.5,1.3c4.9,0.9,9.4,2.3,13.8,4.5c4.3,2.2,8.3,5,11.8,8.4c3.4,3.4,6.3,7.3,8.5,11.6c2.3,4.4,3.7,8.8,4.6,13.6
					c0.9,4.7,1.1,9.5,1.3,14.3c0.1,2.2,0.1,4.4,0.1,6.6c0,2.6,0,5.2,0,7.8v30V78L201.8,125z"/>
			</defs>
			<clipPath id="SVGID_00000129193035541580722820000002862518595122273470_">
				<use xlink:href="#SVGID_00000174562349657389353990000015367593886623280822_"  style="overflow:visible;"/>
			</clipPath>
			
				<path id="wallet_pocket_1_" style="clip-path:url(#SVGID_00000129193035541580722820000002862518595122273470_);fill:#D3D1C8;" d="
				M201.8,237.3H-333V36.9h129.9c3.2,0,6.4,0,9.6,0c2.7,0,5.4,0,8,0.1c5.9,0.2,11.7,0.5,17.5,1.5c5.9,1,11.3,2.8,16.7,5.5
				c-1.1-0.6,14.7,5.9,28.6,27.5c10,15.6,29.5,32.1,56.7,32.1s46.7-16.5,56.7-32.1C4,51.1,18.6,44.5,19.3,44.1
				c5.3-2.7,10.8-4.4,16.7-5.5c5.8-1,11.7-1.4,17.5-1.5c2.7-0.1,5.4-0.1,8-0.1c3.2,0,6.4,0,9.6,0h130.6L201.8,237.3L201.8,237.3z"/>
		</g>
	</g>
</g>
</svg>
